<svg width="644" height="724" viewBox="0 0 644 724" fill="none" xmlns="http://www.w3.org/2000/svg">
<g filter="url(#filter0_d_1315_67)">
<path d="M31 135.7C31 120.491 41.7134 107.387 56.6189 104.364L458.951 22.7728C478.76 18.7557 497.28 33.8967 497.28 54.1086V441.446C497.28 455.705 487.838 468.241 474.133 472.177L71.8007 587.742C51.3656 593.611 31 578.272 31 557.01V135.7Z" fill="#100F0F"/>
<path d="M91.1602 178.985C91.1602 163.795 101.847 150.702 116.728 147.659L516.912 65.8284C536.735 61.7749 555.291 76.9207 555.291 97.1538V486.138C555.291 500.371 545.883 512.89 532.212 516.85L132.029 632.754C111.578 638.677 91.1602 623.333 91.1602 602.042V178.985Z" fill="#393838"/>
<path d="M149.176 230.215C149.176 215.017 159.874 201.919 174.766 198.885L574.95 117.354C594.766 113.316 613.307 128.46 613.307 148.684V536.016C613.307 550.26 603.884 562.787 590.198 566.736L190.014 682.215C169.571 688.115 149.176 672.773 149.176 651.495V230.215Z" fill="#656464"/>
<path d="M474.11 427.951C465.99 434.911 451.023 444.847 443.95 452.311C443.95 452.311 441.527 454.334 438.493 456.639C434.462 459.951 429.758 461.544 429.758 461.544C412.633 467.465 393.606 468.379 376.671 474.35C376.196 413.076 379.361 352.985 379.075 293.83C379.075 293.83 379.035 274.636 391.833 251.361C368.965 257.965 346.098 264.528 323.23 271.049C335.754 281.391 336.11 301.8 336.446 304.599C336.65 357.194 337.355 412.943 338.564 471.845C338.309 475.27 338.441 498.914 326.651 518.592C378.169 498.996 428.798 490.991 482.23 471.845C476.406 460.098 479.913 439.868 474.11 427.951Z" fill="white"/>
</g>
<defs>
<filter id="filter0_d_1315_67" x="0.548904" y="0.80728" width="643.207" height="722.267" filterUnits="userSpaceOnUse" color-interpolation-filters="sRGB">
<feFlood flood-opacity="0" result="BackgroundImageFix"/>
<feColorMatrix in="SourceAlpha" type="matrix" values="0 0 0 0 0 0 0 0 0 0 0 0 0 0 0 0 0 0 127 0" result="hardAlpha"/>
<feOffset dy="9.13533"/>
<feGaussianBlur stdDeviation="15.2255"/>
<feComposite in2="hardAlpha" operator="out"/>
<feColorMatrix type="matrix" values="0 0 0 0 0 0 0 0 0 0 0 0 0 0 0 0 0 0 0.15 0"/>
<feBlend mode="normal" in2="BackgroundImageFix" result="effect1_dropShadow_1315_67"/>
<feBlend mode="normal" in="SourceGraphic" in2="effect1_dropShadow_1315_67" result="shape"/>
</filter>
</defs>
</svg>
